# xmcd CD database file
#
# Track frame offsets:
#	150
#	36792
#	59330
#	93920
#	116272
#	157492
#	182522
#	211115
#	231855
#	246597
#
# Disc length: 3834 seconds
#
# Revision: 0
# Processed by: cddbd v1.5.2PL0 Copyright (c) Steve Scherf et al.
# Submitted via: CDex 1.70beta2
#
DISCID=850ef80a
DTITLE=(Davide Santorsola Trio (Feat Lee Konitz) - To Bill Evans
DYEAR=1997
DGENRE=Jazz
TTITLE0=The Opener
TTITLE1=My Favorite Things
TTITLE2=Our Love Is Here To Stay
TTITLE3=I Believe in Sping
TTITLE4=If You Could See Me Now
TTITLE5=Who Can I Turn To?
TTITLE6=In Love In Vain
TTITLE7=Turn Out The Stars
TTITLE8=Funkallero
TTITLE9=Toll-Bridge
EXTD=YEAR: 1997
EXTT0=
EXTT1=
EXTT2=
EXTT3=
EXTT4=
EXTT5=
EXTT6=
EXTT7=
EXTT8=
EXTT9=
PLAYORDER=
